# xmcd CD database file
#
# Track frame offsets:
#	150
#	19457
#	42491
#	70260
#	85724
#	105298
#	122687
#	143429
#	165176
#	187510
#
# Disc length: 2795 seconds
#
# Revision: 0
# Processed by: cddbd v1.5.1PL0 Copyright (c) Steve Scherf et al.
# Submitted via: CDex 1.51
#
DISCID=6e0ae90a
DTITLE=Jeremaine Landsberger - for costa
DYEAR=1998
DGENRE=Jazz
TTITLE0=Bebop Pur
TTITLE1=Lover Man
TTITLE2=For Costa
TTITLE3=Sambamani
TTITLE4=The Man I Love
TTITLE5=Days of Wine and Roses
TTITLE6=Sascha Blues
TTITLE7=Stella by Starlight
TTITLE8=Blues for Ike
TTITLE9=My one and only Love
EXTD=YEAR: 1998
EXTT0=
EXTT1=
EXTT2=
EXTT3=
EXTT4=
EXTT5=
EXTT6=
EXTT7=
EXTT8=
EXTT9=
PLAYORDER=
